<svg xmlns="http://www.w3.org/2000/svg" width="509.073" height="526.972" viewBox="0 0 509.073 526.972">
    <defs>
        <clipPath id="0w6d35wusa">
            <path data-name="Rectangle 1790" style="fill:none" d="M0 0h509.073v526.972H0z"/>
        </clipPath>
    </defs>
    <path data-name="Line 22" transform="translate(336.2 267.432)" style="stroke:#918cad;stroke-linecap:round;stroke-miterlimit:10;stroke-width:3px;stroke-dasharray:0 6.01;fill:none" d="M0 0h117.106"/>
    <path data-name="Line 23" transform="translate(80.1 267.432)" style="stroke:#918cad;stroke-linecap:round;stroke-miterlimit:10;stroke-width:3px;stroke-dasharray:0 6.01;fill:none" d="M0 0h117.106"/>
    <path data-name="Line 24" transform="translate(266.703 80.828)" style="stroke:#918cad;stroke-linecap:round;stroke-miterlimit:10;stroke-width:3px;stroke-dasharray:0 6.01;fill:none" d="M0 117.106V0"/>
    <path data-name="Line 25" transform="translate(266.703 336.928)" style="stroke:#918cad;stroke-linecap:round;stroke-miterlimit:10;stroke-width:3px;stroke-dasharray:0 6.01;fill:none" d="M0 117.106V0"/>
    <path data-name="Line 26" transform="translate(312.123 136.688)" style="stroke:#918cad;stroke-linecap:round;stroke-miterlimit:10;stroke-width:3px;stroke-dasharray:0 6.01;fill:none" d="M82.63 0 0 82.63"/>
    <path data-name="Line 27" transform="translate(135.959 138.245)" style="stroke:#918cad;stroke-linecap:round;stroke-miterlimit:10;stroke-width:3px;stroke-dasharray:0 6.01;fill:none" d="M79.305 79.305 0 0"/>
    <path data-name="Line 28" transform="translate(135.959 315.545)" style="stroke:#918cad;stroke-linecap:round;stroke-miterlimit:10;stroke-width:3px;stroke-dasharray:0 6.01;fill:none" d="M0 82.63 82.63 0"/>
    <path data-name="Line 29" transform="translate(315.448 317.313)" style="stroke:#918cad;stroke-linecap:round;stroke-miterlimit:10;stroke-width:3px;stroke-dasharray:0 6.01;fill:none" d="m0 0 79.305 79.305"/>
    <g data-name="Group 1820">
        <g data-name="Group 1819" style="clip-path:url(#0w6d35wusa)">
            <path data-name="Path 2992" d="M277.843 236.437a42.035 42.035 0 1 0-42.034 42.034 42.034 42.034 0 0 0 42.034-42.034" transform="translate(30.894 30.994)" style="fill:#8669fc"/>
            <path data-name="Path 2993" d="M250.728 231.651a7.231 7.231 0 1 0-7.231 7.231 7.232 7.232 0 0 0 7.231-7.231" transform="translate(37.668 35.78)" style="fill:#fff"/>
            <path data-name="Path 2994" d="M225.781 231.651a7.231 7.231 0 1 0-7.231 7.231 7.232 7.232 0 0 0 7.231-7.231" transform="translate(33.691 35.78)" style="fill:#fff"/>
            <path data-name="Path 2995" d="M231.023 211.947a7.231 7.231 0 1 0 7.231 7.231 7.232 7.232 0 0 0-7.231-7.231" transform="translate(35.68 33.791)" style="fill:#03cbad"/>
            <path data-name="Path 2996" d="M231.023 236.894a7.231 7.231 0 1 0 7.231 7.231 7.231 7.231 0 0 0-7.231-7.231" transform="translate(35.68 37.768)" style="fill:#03cbad"/>
            <path data-name="Path 2997" d="m253.908 59.037-6.54-6.537a1.85 1.85 0 1 0-2.617 2.616l6.54 6.539a1.85 1.85 0 1 0 2.616-2.616m-32.7-6.539a1.85 1.85 0 0 0-2.616 0l-6.539 6.539a1.849 1.849 0 1 0 2.615 2.616l6.54-6.539a1.85 1.85 0 0 0 0-2.616m11.771 4.875a1.85 1.85 0 0 0-1.849 1.85v9.248a1.849 1.849 0 1 0 3.7 0v-9.249a1.849 1.849 0 0 0-1.849-1.85m1.85-36.911V1.849a1.849 1.849 0 1 0-3.7 0v18.614a20.35 20.35 0 0 0-18.5 20.255 1.856 1.856 0 0 0 1.85 1.857h7.551a11.1 11.1 0 0 0 21.889 0h7.554a1.849 1.849 0 0 0 1.849-1.849 20.349 20.349 0 0 0-18.5-20.263m-1.85 27.662a7.4 7.4 0 0 1-7.165-5.549h14.332a7.4 7.4 0 0 1-7.166 5.549m-16.545-9.248a16.648 16.648 0 0 1 33.09 0z" transform="translate(33.722)" style="fill:#918cad"/>
            <path data-name="Path 2998" d="M102.247 407.042H65.721a6.094 6.094 0 0 1-6.087-6.087v-44.643a6.094 6.094 0 0 1 6.088-6.087h36.526a6.094 6.094 0 0 1 6.087 6.087v44.643a6.093 6.093 0 0 1-6.088 6.087zm-36.526-52.759a2.031 2.031 0 0 0-2.029 2.029v44.643a2.03 2.03 0 0 0 2.029 2.029h36.526a2.03 2.03 0 0 0 2.029-2.029v-44.643a2.031 2.031 0 0 0-2.029-2.029z" transform="translate(9.507 55.837)" style="fill:#918cad"/>
            <path data-name="Path 2999" d="M72.721 369.4a6.088 6.088 0 1 1 6.087-6.088 6.094 6.094 0 0 1-6.087 6.088m0-8.117a2.03 2.03 0 1 0 2.029 2.029 2.031 2.031 0 0 0-2.029-2.029" transform="translate(10.624 56.953)" style="fill:#918cad"/>
            <path data-name="Path 3000" d="M90.223 369.4a6.088 6.088 0 1 1 6.087-6.088 6.094 6.094 0 0 1-6.087 6.088m0-8.117a2.03 2.03 0 1 0 2.029 2.029 2.031 2.031 0 0 0-2.029-2.029" transform="translate(13.414 56.953)" style="fill:#918cad"/>
            <path data-name="Path 3001" d="M82.943 382.006a2.03 2.03 0 1 1-2.029-2.029 2.029 2.029 0 0 1 2.029 2.029" transform="translate(12.577 60.58)" style="fill:#918cad"/>
            <path data-name="Path 3002" d="M93.948 392.172a14.1 14.1 0 0 0 0-16.981l1.235-1.236a2.028 2.028 0 0 0-2.868-2.868l-1.236 1.235a14.1 14.1 0 0 0-16.982 0l-1.235-1.235a2.029 2.029 0 0 0-2.87 2.868l1.236 1.236a14.093 14.093 0 0 0 0 16.981l-1.235 1.236a2.029 2.029 0 0 0 2.87 2.868l1.235-1.235a14.1 14.1 0 0 0 16.982 0l1.235 1.236a2.029 2.029 0 0 0 2.87-2.87zm-21.506-8.491a10.146 10.146 0 1 1 10.146 10.146 10.158 10.158 0 0 1-10.146-10.146" transform="translate(10.902 58.906)" style="fill:#918cad"/>
            <path data-name="Path 3003" d="M122.987 93.849a30.82 30.82 0 0 0-43.531 0A2.531 2.531 0 0 0 79.5 97.4a2.487 2.487 0 0 0 3.552 0 25.705 25.705 0 0 1 18.189-7.532 25.346 25.346 0 0 1 18.193 7.532 2.589 2.589 0 0 0 1.8.758 2.474 2.474 0 0 0 1.8-.758 2.531 2.531 0 0 0-.047-3.551z" transform="translate(12.555 13.528)" style="fill:#918cad"/>
            <path data-name="Path 3004" d="M100.368 92.57a21.568 21.568 0 0 0-15.394 6.442 2.487 2.487 0 0 0 .046 3.552 2.513 2.513 0 0 0 1.753.711 2.4 2.4 0 0 0 1.8-.758 16.7 16.7 0 0 1 23.636-.048 2.512 2.512 0 1 0 3.553-3.552 21.675 21.675 0 0 0-15.394-6.347z" transform="translate(13.432 14.759)" style="fill:#918cad"/>
            <path data-name="Path 3005" d="M99.505 100.292a12.764 12.764 0 0 0-9.095 3.789 2.512 2.512 0 0 0 3.553 3.553 8.016 8.016 0 0 1 11.037 0 2.589 2.589 0 0 0 1.8.758 2.535 2.535 0 0 0 1.8-4.311 12.764 12.764 0 0 0-9.095-3.789z" transform="translate(14.295 15.99)" style="fill:#918cad"/>
            <path data-name="Path 3006" d="M102.516 111.891a3.837 3.837 0 1 1-3.837-3.837 3.837 3.837 0 0 1 3.837 3.837" transform="translate(15.121 17.227)" style="fill:#918cad"/>
            <path data-name="Path 3007" d="M356.78 63.967H391a1.71 1.71 0 0 1 1.71 1.711V84.5a1.711 1.711 0 0 1-1.71 1.708h-34.22a1.711 1.711 0 0 1-1.71-1.711V65.678a1.71 1.71 0 0 1 1.71-1.711m1.711 18.82h30.8v-15.4h-30.8zm32.309 23.951h-33.818l-2.093 4.187a1.711 1.711 0 0 1-3.061-1.53l1.33-2.659a8.554 8.554 0 0 1 .2-17.106h41.062a8.554 8.554 0 0 1 .2 17.106l1.33 2.659a1.711 1.711 0 1 1-3.061 1.53zm-15.2-3.421h18.82a5.132 5.132 0 1 0 0-10.264H375.6zm-22.242-10.264a5.132 5.132 0 1 0 0 10.264h18.82V93.053zm22.595-13.333a1.711 1.711 0 0 1-2.419-2.42l4.277-4.277a1.711 1.711 0 0 1 2.42 2.42zm-4.277-4.277a1.711 1.711 0 0 1-2.419-2.42l2.566-2.566a1.711 1.711 0 1 1 2.42 2.419zm18.466 21.032a1.711 1.711 0 0 1 0 3.421h-5.132a1.711 1.711 0 1 1 0-3.421zM357.635 99.9a1.711 1.711 0 1 1 0-3.421h5.133a1.711 1.711 0 0 1 0 3.421z" transform="translate(54.973 10.198)" style="fill:#918cad"/>
            <path data-name="Path 3008" d="M352.67 366.5a1.459 1.459 0 0 0-1.457 1.459v20.9a1.457 1.457 0 0 0 1.457 1.457h31.111a1.457 1.457 0 0 0 1.459-1.457v-20.9a1.459 1.459 0 0 0-1.459-1.459h-5.166v-6.8a9.532 9.532 0 0 0-9.524-9.5h-1.73a9.532 9.532 0 0 0-9.524 9.524h2.917a6.615 6.615 0 0 1 6.606-6.607h1.725a6.617 6.617 0 0 1 6.611 6.607v6.8zm29.652 20.9h-28.193v-17.984h28.194z" transform="translate(55.995 55.831)" style="fill:#918cad"/>
            <path data-name="Rectangle 1785" transform="translate(422.762 432.15)" style="fill:#918cad" d="M0 0h2.917v6.942H0z"/>
            <path data-name="Path 3009" d="M438.813 200.488h-28.857a5.847 5.847 0 0 0-5.83 5.83v53.926a5.891 5.891 0 0 0 5.538 5.83v2.915a1.457 1.457 0 1 0 2.915 0v-2.915h23.611v2.915a1.458 1.458 0 0 0 2.916 0v-2.915a5.791 5.791 0 0 0 5.537-5.83v-53.926a5.847 5.847 0 0 0-5.83-5.83m2.915 59.755a2.923 2.923 0 0 1-2.915 2.915h-28.857a2.923 2.923 0 0 1-2.915-2.915V227.3h34.688zm0-35.853h-34.687v-18.072a2.923 2.923 0 0 1 2.915-2.914h28.858a2.923 2.923 0 0 1 2.914 2.914z" transform="translate(64.431 31.964)" style="fill:#918cad"/>
            <path data-name="Path 3010" d="M410.736 234.37a1.377 1.377 0 0 0 1.457-1.457v-3.061a1.457 1.457 0 1 0-2.915 0v3.061a1.461 1.461 0 0 0 1.457 1.457" transform="translate(65.252 36.413)" style="fill:#918cad"/>
            <path data-name="Path 3011" d="M410.736 209.413a1.377 1.377 0 0 0-1.457 1.457v3.061a1.457 1.457 0 1 0 2.915 0v-3.061a1.461 1.461 0 0 0-1.457-1.457" transform="translate(65.252 33.387)" style="fill:#918cad"/>
            <path data-name="Path 3012" d="M60.784 202.572H4.342A4.354 4.354 0 0 0 0 206.914v56.442a4.354 4.354 0 0 0 4.342 4.344h56.442a4.354 4.354 0 0 0 4.342-4.342v-56.444a4.354 4.354 0 0 0-4.342-4.342zm1.448 60.784a1.451 1.451 0 0 1-1.447 1.447H4.342a1.452 1.452 0 0 1-1.442-1.447v-56.442a1.45 1.45 0 0 1 1.447-1.447h56.437a1.451 1.451 0 0 1 1.448 1.447z" transform="translate(0 32.296)" style="fill:#918cad"/>
            <path data-name="Path 3013" d="M27.95 208.813H7.689a1.45 1.45 0 0 0-1.447 1.447v47.759a1.45 1.45 0 0 0 1.447 1.447H27.95a1.45 1.45 0 0 0 1.447-1.447V210.26a1.45 1.45 0 0 0-1.447-1.447m-1.45 47.759H9.136v-44.865H26.5z" transform="translate(.995 33.291)" style="fill:#918cad"/>
            <path data-name="Path 3014" d="M51.667 208.813H31.4a1.451 1.451 0 0 0-1.447 1.447v47.759a1.451 1.451 0 0 0 1.447 1.447h20.267a1.451 1.451 0 0 0 1.447-1.447V210.26a1.451 1.451 0 0 0-1.447-1.447m-1.447 47.759H32.853v-44.865H50.22z" transform="translate(4.776 33.291)" style="fill:#918cad"/>
            <path data-name="Path 3015" d="M13.93 246.658h5.789a1.447 1.447 0 1 0 0-2.894H13.93a1.447 1.447 0 1 0 0 2.894z" transform="translate(1.99 38.864)" style="fill:#918cad"/>
            <path data-name="Path 3016" d="M37.647 246.658h5.789a1.447 1.447 0 1 0 0-2.894h-5.789a1.447 1.447 0 1 0 0 2.894" transform="translate(5.771 38.864)" style="fill:#918cad"/>
            <path data-name="Path 3017" d="M41.59 216.5a1.448 1.448 0 1 1-1.448-1.447 1.447 1.447 0 0 1 1.448 1.447" transform="translate(6.169 34.286)" style="fill:#918cad"/>
            <path data-name="Path 3018" d="M17.874 216.5a1.448 1.448 0 1 1-1.447-1.447 1.447 1.447 0 0 1 1.447 1.447" transform="translate(2.388 34.286)" style="fill:#918cad"/>
            <path data-name="Path 3019" d="M204.727 404.6H265.3a5.985 5.985 0 0 1 5.966 5.966v19.89a5.987 5.987 0 0 1-5.966 5.966h-60.573a5.987 5.987 0 0 1-5.966-5.966V410.57a5.969 5.969 0 0 1 5.966-5.966zm60.573 2.9h-60.573a3.086 3.086 0 0 0-3.074 3.074v19.89a3.086 3.086 0 0 0 3.074 3.074H265.3a3.088 3.088 0 0 0 3.074-3.074V410.57a3.088 3.088 0 0 0-3.074-3.07z" transform="translate(31.689 64.507)" style="fill:#918cad"/>
            <path data-name="Rectangle 1786" transform="translate(239.217 493.701)" style="fill:#918cad" d="M0 0h54.969v2.893H0z"/>
            <path data-name="Rectangle 1787" transform="translate(262.362 483.576)" style="fill:#918cad" d="M0 0h8.679v2.893H0z"/>
            <path data-name="Rectangle 1788" transform="translate(292.636 483.576)" style="fill:#918cad" d="M0 0h1.55v2.893H0z"/>
            <path data-name="Rectangle 1789" transform="translate(289.743 483.576)" style="fill:#918cad" d="M0 0h1.55v2.893H0z"/>
            <path data-name="Path 3020" d="M224.446 434.746a1.446 1.446 0 1 0-2.893 0v18a2.175 2.175 0 0 1-2.17 2.169h-1.446a2.175 2.175 0 0 1-2.17-2.169 1.446 1.446 0 1 0-2.893 0 5.079 5.079 0 0 0 5.063 5.063h1.446a5.079 5.079 0 0 0 5.063-5.063z" transform="translate(33.939 69.082)" style="fill:#918cad"/>
            <path data-name="Path 3021" d="M240.095 434.746a1.446 1.446 0 1 0-2.893 0v18a5.077 5.077 0 0 0 5.062 5.063h1.447a5.079 5.079 0 0 0 5.063-5.063 1.446 1.446 0 1 0-2.893 0 2.175 2.175 0 0 1-2.17 2.169h-1.447a2.175 2.175 0 0 1-2.169-2.169z" transform="translate(37.818 69.082)" style="fill:#918cad"/>
            <path data-name="Path 3022" d="M231.674 434.746a1.446 1.446 0 1 0-2.893 0v21.7a1.446 1.446 0 1 0 2.893 0z" transform="translate(36.475 69.082)" style="fill:#918cad"/>
        </g>
    </g>
</svg>
