<svg xmlns="http://www.w3.org/2000/svg" width="200.389" height="62.622" viewBox="0 0 200.389 62.622">
    <defs>
        <clipPath id="cx4o2qotma">
            <path data-name="Rectangle 600" style="fill:none" d="M0 0h200.389v62.622H0z"/>
        </clipPath>
        <clipPath id="yd2g653ycb">
            <path data-name="Path 1902" d="M32.408 28.147V61.1a1.767 1.767 0 0 0 1.62 1.739 2.773 2.773 0 0 0 1.488-.415l30.213-16.516a1.336 1.336 0 0 0 0-2.569L35.516 26.822a2.772 2.772 0 0 0-1.488-.416 1.769 1.769 0 0 0-1.62 1.741" transform="translate(-32.408 -26.406)" style="fill:none"/>
        </clipPath>
        <clipPath id="mxjv6vib2d">
            <path data-name="Path 1903" d="m35.235 26.439 18.292 18.292 5.741-5.741-22.26-12.168a2.772 2.772 0 0 0-1.488-.416 1.276 1.276 0 0 0-.285.033" transform="translate(-35.235 -26.406)" style="fill:none"/>
        </clipPath>
        <clipPath id="mj49k9to8f">
            <path data-name="Path 1904" d="m73.976 58.8 5.6 5.6 8.092-4.426a1.336 1.336 0 0 0 0-2.569l-7.954-4.349z" transform="translate(-73.976 -53.058)" style="fill:none"/>
        </clipPath>
        <clipPath id="9f6e0jqv0h">
            <path data-name="Path 1905" d="m35.648 83.306-.017.017h.1a2.773 2.773 0 0 0 1.488-.415l22.119-12.089-5.6-5.6z" transform="translate(-35.631 -65.217)" style="fill:none"/>
        </clipPath>
        <linearGradient id="45knrx7ric" x1="-.274" y1="1.235" x2="-.262" y2="1.235" gradientUnits="objectBoundingBox">
            <stop offset="0" stop-color="#006884"/>
            <stop offset="1" stop-color="#8ad1d0"/>
        </linearGradient>
        <linearGradient id="nidzerfjke" x1="-.54" y1="1.874" x2="-.523" y2="1.874" gradientUnits="objectBoundingBox">
            <stop offset="0" stop-color="#24bbb6"/>
            <stop offset="1" stop-color="#dbe692"/>
        </linearGradient>
        <linearGradient id="rp5rxibtkg" x1="-2.382" y1="3.312" x2="-2.349" y2="3.312" gradientUnits="objectBoundingBox">
            <stop offset="0" stop-color="#fcc072"/>
            <stop offset="1" stop-color="#f58a5b"/>
        </linearGradient>
        <linearGradient id="v0rphg7ibi" x1="-.471" y1="1.27" x2="-.455" y2="1.27" gradientUnits="objectBoundingBox">
            <stop offset="0" stop-color="#712b8f"/>
            <stop offset="1" stop-color="#ea1d27"/>
        </linearGradient>
    </defs>
    <g data-name="Group 469">
        <g data-name="Group 468" style="clip-path:url(#cx4o2qotma)">
            <path data-name="Path 1901" d="M189.8 62.622H10.593A10.593 10.593 0 0 1 0 52.028V10.593A10.593 10.593 0 0 1 10.593 0H189.8a10.594 10.594 0 0 1 10.593 10.593v41.435A10.593 10.593 0 0 1 189.8 62.622"/>
        </g>
    </g>
    <g data-name="Group 471">
        <g data-name="Group 470" style="clip-path:url(#yd2g653ycb)" transform="translate(15.302 12.468)">
            <path data-name="Rectangle 601" transform="rotate(-13.7 4.295 35.854)" style="fill:url(#45knrx7ric)" d="M0 0h41.939v43.513H0z"/>
        </g>
    </g>
    <g data-name="Group 473">
        <g data-name="Group 472" style="clip-path:url(#mxjv6vib2d)" transform="translate(16.637 12.468)">
            <path data-name="Rectangle 602" transform="rotate(-61.604 8.06 13.52)" style="fill:url(#nidzerfjke)" d="M0 0h27.549v29.856H0z"/>
        </g>
    </g>
    <g data-name="Group 475">
        <g data-name="Group 474" style="clip-path:url(#mj49k9to8f)" transform="translate(34.929 25.052)">
            <path data-name="Rectangle 603" style="fill:url(#rp5rxibtkg)" d="M0 0h14.666v11.343H0z"/>
        </g>
    </g>
    <g data-name="Group 477">
        <g data-name="Group 476" style="clip-path:url(#9f6e0jqv0h)" transform="translate(16.824 30.793)">
            <path data-name="Rectangle 604" transform="rotate(-45.5 6.462 15.407)" style="fill:url(#v0rphg7ibi)" d="M0 0h29.533v29.602H0z"/>
        </g>
    </g>
    <g data-name="Group 479">
        <g data-name="Group 478" style="clip-path:url(#cx4o2qotma)">
            <path data-name="Path 1906" d="M178.7 84.523a8.751 8.751 0 0 1-1.737-2.375l2.523-1.074a5.314 5.314 0 0 0 .771 1.189 3.45 3.45 0 0 0 2.564 1.183 3.391 3.391 0 0 0 2.669-1.256 4.442 4.442 0 0 0 .723-2.63v-.985c-1.8 2.317-5.74 1.993-7.944-.4a6.948 6.948 0 0 1 .048-9.278c2.351-2.329 5.839-2.623 7.891-.417v-1.115h2.733v11.883c0 3.024-1.11 4.732-2.488 5.727a6.489 6.489 0 0 1-3.668 1.062 6.052 6.052 0 0 1-4.09-1.514m65.523.655 2.639-6.252-4.673-10.84h2.66l3.33 7.721 3.258-7.721h2.668l-7.215 17.093zm-12.628-5.971a4.2 4.2 0 0 1-1.172-2.9 3.659 3.659 0 0 1 .968-2.552 5.873 5.873 0 0 1 4.375-1.636 5.7 5.7 0 0 1 2.824.647 2.57 2.57 0 0 0-2.76-2.641 2.672 2.672 0 0 0-2.6 1.685l-2.39-.968a4.928 4.928 0 0 1 4.927-3.128 5.094 5.094 0 0 1 5.4 5.739v6.565h-2.608v-1.176a4.447 4.447 0 0 1-1.429 1.132 5.018 5.018 0 0 1-2.183.442 4.94 4.94 0 0 1-3.354-1.21m-83.407-5.644a6.513 6.513 0 1 1 6.513 6.575 6.51 6.51 0 0 1-6.513-6.575m14.136 0a6.513 6.513 0 1 1 6.512 6.575 6.509 6.509 0 0 1-6.512-6.575m-31.777 3.456a10.157 10.157 0 0 1 .118-14.325 10.054 10.054 0 0 1 7.191-2.978 10.172 10.172 0 0 1 6.921 2.765l-1.951 2.037a7.111 7.111 0 0 0-10.085.137 7.563 7.563 0 0 0-.067 10.455 7.194 7.194 0 0 0 10.3.17 6.066 6.066 0 0 0 1.469-3.51h-6.606v-2.792h9.28a11.4 11.4 0 0 1 .154 2.127 9.4 9.4 0 0 1-2.529 6.306 9.3 9.3 0 0 1-6.8 2.707 10.613 10.613 0 0 1-7.4-3.1m66.117 1.172a7.108 7.108 0 0 1 0-9.318 5.718 5.718 0 0 1 8.531-.016 9.955 9.955 0 0 1 1.673 3.021l-8.683 3.657a3.387 3.387 0 0 0 3.087 2 3.581 3.581 0 0 0 3.244-1.829l2.271 1.528c-.262.345-.584.687-.826.954a6.588 6.588 0 0 1-9.3 0m16.311 1.837V62.717h5.57c3.357 0 5.89 2.349 5.89 5.242a5.313 5.313 0 0 1-5.376 5.242H215.6v6.826zm13.188 0V62.715h2.652v17.312zm-35.351-.281V60.373h2.89v19.373zm47.759-4.8a4.687 4.687 0 0 0-2.488-.634c-1.879 0-2.94.95-2.94 1.988a1.923 1.923 0 0 0 2.146 1.732 3.3 3.3 0 0 0 3.281-3.086M158.33 73.56a3.648 3.648 0 1 0-3.634 3.968 3.8 3.8 0 0 0 3.634-3.968m14.135 0a3.648 3.648 0 1 0-3.634 3.968 3.8 3.8 0 0 0 3.634-3.968m13.815 1.2a3.716 3.716 0 0 0 .1-.469.162.162 0 0 0 .008-.062 4.134 4.134 0 0 0 0-1.351.363.363 0 0 0-.013-.084 3.482 3.482 0 0 0-.146-.584 3.566 3.566 0 0 0-3.338-2.606 3.983 3.983 0 0 0 .051 7.914 3.632 3.632 0 0 0 3.338-2.759m11.453-1.428 5.8-2.457a2.675 2.675 0 0 0-2.4-1.357 3.648 3.648 0 0 0-3.4 3.815m24-5.308a2.771 2.771 0 0 0-2.952-2.739h-3.173v5.478h3.323a2.764 2.764 0 0 0 2.8-2.739" transform="translate(-67.376 -31.52)" style="fill-rule:evenodd;fill:#fff"/>
            <path data-name="Path 1907" d="M378.808 106.917h-.008v-.017h.006a.015.015 0 0 0-.008 0 .009.009 0 0 0-.01.008v.015s0 .007.01.007a.01.01 0 0 0 .008 0" transform="translate(-199.94 -56.42)" style="fill-rule:evenodd;fill:#fff"/>
            <path data-name="Path 1908" d="m378.856 106.92-.008-.012a.007.007 0 0 0 .006-.008s0-.007-.009-.007h-.008v.029-.012l.008.012zm-.007-.02z" transform="translate(-199.964 -56.421)" style="fill-rule:evenodd;fill:#fff"/>
            <path data-name="Path 1909" d="M378.9 106.916h-.013v-.008h.011-.011v-.008h.011-.017v.029h.017z" transform="translate(-199.988 -56.421)" style="fill-rule:evenodd;fill:#fff"/>
            <path data-name="Path 1910" d="m378.948 106.92-.008-.029h-.006l-.009.029h.006v-.009h.007v.009zm-.008-.014h-.006v-.007z" transform="translate(-200.01 -56.421)" style="fill-rule:evenodd;fill:#fff"/>
            <path data-name="Path 1911" d="M378.988 106.891h-.019.007v.025-.016h.006z" transform="translate(-200.034 -56.421)" style="fill-rule:evenodd;fill:#fff"/>
            <path data-name="Path 1912" d="M379.03 106.916h-.013v-.008h.01-.01v-.008h.012-.019v.029h.019z" transform="translate(-200.056 -56.421)" style="fill-rule:evenodd;fill:#fff"/>
            <path data-name="Path 1913" d="M379.078 106.911v-.011a.009.009 0 0 0-.009-.008h-.011v.029h.011a.009.009 0 0 0 .009-.009m0 0h-.006v-.02h.006z" transform="translate(-200.081 -56.421)" style="fill-rule:evenodd;fill:#fff"/>
            <path data-name="Path 1914" d="M379.152 106.912a.006.006 0 0 0 0-.006s0-.007-.008-.007h-.009v.029h.009s.009 0 .009-.008m-.007-.013v-.007zm0 .012v-.009z" transform="translate(-200.12 -56.421)" style="fill-rule:evenodd;fill:#fff"/>
            <path data-name="Path 1915" d="M379.2 106.891h-.006v.011-.011h-.006l.008.017v.012h.006v-.012z" transform="translate(-200.143 -56.421)" style="fill-rule:evenodd;fill:#fff"/>
            <path data-name="Path 1916" d="M379.28 106.9h-.017v-.036h-.009v.043h.025z" transform="translate(-200.184 -56.405)" style="fill-rule:evenodd;fill:#fff"/>
            <path data-name="Path 1917" d="M379.344 106.894v-.023c0-.007-.008-.01-.016-.01s-.014 0-.014.01v.023c0 .008.008.011.014.011s.016 0 .016-.011m-.008 0a.007.007 0 0 1-.007.006.006.006 0 0 1-.006-.006v-.02H379.336z" transform="translate(-200.217 -56.405)" style="fill-rule:evenodd;fill:#fff"/>
            <path data-name="Path 1918" d="M379.415 106.9v-.026h-.015v.008h.007v.007H379.394v-.021h.015v-.006a.015.015 0 0 0-.013-.006c-.007 0-.015 0-.015.012v.022c0 .007.007.01.014.01h.009z" transform="translate(-200.255 -56.404)" style="fill-rule:evenodd;fill:#fff"/>
            <path data-name="Path 1919" d="M379.488 106.894v-.023c0-.007-.007-.01-.014-.01s-.015 0-.015.01v.023c0 .008.008.011.015.011s.014 0 .014-.011m-.007 0a.007.007 0 0 1-.014 0v-.02h.014z" transform="translate(-200.293 -56.405)" style="fill-rule:evenodd;fill:#fff"/>
            <path data-name="Path 1920" d="M379.61 106.9v-.043h-.01l-.014.032-.015-.032h-.006v.043h.007V106.873l.013.027h.007l.01-.026v.026z" transform="translate(-200.35 -56.405)" style="fill-rule:evenodd;fill:#fff"/>
            <path data-name="Path 1921" d="m379.7 106.9-.013-.043h-.009l-.013.043h.008v-.013h.011v.013zm-.014-.02h-.007v-.01z" transform="translate(-200.403 -56.405)" style="fill-rule:evenodd;fill:#fff"/>
            <path data-name="Path 1922" d="M379.772 106.894c0-.006 0-.012-.008-.015s-.01 0-.01-.008 0 0 .006 0a.011.011 0 0 1 .008 0v-.006a.018.018 0 0 0-.012 0 .011.011 0 0 0-.013.012.016.016 0 0 0 .008.013s.01 0 .01.008a.006.006 0 0 1-.006.006.013.013 0 0 1-.009-.006v.006a.016.016 0 0 0 .014.006.015.015 0 0 0 .014-.009" transform="translate(-200.443 -56.404)" style="fill-rule:evenodd;fill:#fff"/>
            <path data-name="Path 1923" d="M379.835 106.861h-.029v.006h.01v.037h.009v-.037h.009z" transform="translate(-200.476 -56.405)" style="fill-rule:evenodd;fill:#fff"/>
            <path data-name="Path 1924" d="M379.9 106.9h-.019v-.013h.017v-.007h-.017v-.01h.017v-.006h-.027v.043h.027z" transform="translate(-200.513 -56.405)" style="fill-rule:evenodd;fill:#fff"/>
            <path data-name="Path 1925" d="m379.976 106.9-.013-.018a.01.01 0 0 0 .009-.011c0-.008-.006-.011-.013-.011h-.013v.043h.007v-.016l.011.016zm-.012-.03c0 .006 0 .006-.006.006h-.006v-.013h.012z" transform="translate(-200.549 -56.405)" style="fill-rule:evenodd;fill:#fff"/>
            <path data-name="Path 1926" d="M129.054 28.269a4.42 4.42 0 0 1 4.614-4.548 4.115 4.115 0 0 1 3.532 1.819l-1.253.726a2.838 2.838 0 0 0-2.281-1.174 3.005 3.005 0 0 0-3.032 3.177 3.02 3.02 0 0 0 3.032 3.177 3.155 3.155 0 0 0 2.083-.791V29.3h-2.636v-1.361h4.165v3.282a4.749 4.749 0 0 1-3.612 1.609 4.438 4.438 0 0 1-4.614-4.561" transform="translate(-68.119 -12.521)" style="fill:#fff"/>
            <path data-name="Path 1927" d="M150.517 32.82v-8.793h6.023v1.358h-4.482v2.267h4.391v1.357h-4.391v2.453h4.482v1.357z" transform="translate(-79.448 -12.682)" style="fill:#fff"/>
            <path data-name="Path 1928" d="M169.338 32.821v-7.434h-2.663v-1.359h6.868v1.358h-2.662v7.434z" transform="translate(-87.977 -12.683)" style="fill:#fff"/>
            <path data-name="Rectangle 605" transform="translate(90.926 11.345)" style="fill:#fff" d="M0 0h1.542v8.793H0z"/>
            <path data-name="Path 1929" d="M201.961 32.821v-7.434H199.3v-1.359h6.868v1.358H203.5v7.434z" transform="translate(-105.197 -12.683)" style="fill:#fff"/>
            <path data-name="Path 1930" d="M224.387 28.269a4.5 4.5 0 1 1 8.991 0 4.5 4.5 0 1 1-8.991 0m7.409 0a2.924 2.924 0 1 0-5.826 0 2.924 2.924 0 1 0 5.826 0" transform="translate(-118.44 -12.521)" style="fill:#fff"/>
            <path data-name="Path 1931" d="m253.375 32.82-4.587-6.288v6.288h-1.541v-8.793h1.581l4.5 6.091v-6.091h1.543v8.793z" transform="translate(-130.506 -12.682)" style="fill:#fff"/>
        </g>
    </g>
</svg>
