<svg xmlns="http://www.w3.org/2000/svg" width="23.063" height="16.727" viewBox="0 0 23.063 16.727">
    <path data-name="Path 438" d="M22.423 5.6H7.64A4.146 4.146 0 0 0 3.5 9.74v8.448a4.146 4.146 0 0 0 4.14 4.14h14.783a4.146 4.146 0 0 0 4.14-4.14V9.74a4.146 4.146 0 0 0-4.14-4.14zm2.45 12.672a2.452 2.452 0 0 1-2.45 2.45H7.64a2.452 2.452 0 0 1-2.45-2.45V9.824a2.452 2.452 0 0 1 2.45-2.45h14.783a2.452 2.452 0 0 1 2.45 2.45z" transform="translate(-3.5 -5.6)" style="fill:#fff"/>
    <path data-name="Path 439" d="m20.342 11.58-4.619 3.447L11.1 11.58a.76.76 0 0 0-1.135.265.916.916 0 0 0 .243 1.238l5.511 4.155 5.511-4.066a.916.916 0 0 0 .243-1.238.733.733 0 0 0-1.131-.354z" transform="translate(-4.235 -6.618)" style="fill:#fff"/>
</svg>
