<svg xmlns="http://www.w3.org/2000/svg" width="52" height="52" viewBox="0 0 52 52">
  <g id="Group_1808" data-name="Group 1808" transform="translate(-279 -7894)">
    <circle id="Ellipse_21" data-name="Ellipse 21" cx="26" cy="26" r="26" transform="translate(279 7894)" fill="rgba(50,19,175,0.25)"/>
    <g id="phone-ic" transform="translate(92.385 7864.794)">
      <path id="Path_2805" data-name="Path 2805" d="M217.227,41.371H208a3.848,3.848,0,0,0-3.843,3.843V65.2A3.848,3.848,0,0,0,208,69.04h9.223A3.848,3.848,0,0,0,221.07,65.2V45.214a3.847,3.847,0,0,0-3.843-3.843ZM219.533,65.2a2.309,2.309,0,0,1-2.306,2.306H208A2.309,2.309,0,0,1,205.7,65.2V45.214A2.309,2.309,0,0,1,208,42.908h9.223a2.309,2.309,0,0,1,2.306,2.306Z" transform="translate(0)" fill="#fff"/>
      <path id="Path_2806" data-name="Path 2806" d="M326.568,427.369a1.537,1.537,0,1,1-1.537-1.537,1.537,1.537,0,0,1,1.537,1.537" transform="translate(-112.415 -362.173)" fill="#fff"/>
      <path id="Path_2807" data-name="Path 2807" d="M314.064,81.129h-3.075a.768.768,0,1,0,0,1.537h3.075a.768.768,0,0,0,0-1.537Z" transform="translate(-99.911 -37.453)" fill="#fff"/>
    </g>
  </g>
</svg>
