<svg xmlns="http://www.w3.org/2000/svg" width="220" height="220" viewBox="0 0 220 220">
  <g id="Group_10660" data-name="Group 10660" transform="translate(-850 -6552.132)">
    <circle id="Ellipse_15" data-name="Ellipse 15" cx="110" cy="110" r="110" transform="translate(850 6552.132)" fill="#f2fffd"/>
    <g id="power-cons-ic" transform="translate(-3397.958 -111.757)">
      <path id="Path_2734" data-name="Path 2734" d="M443.706,126.746a9.144,9.144,0,0,0-9.145-9.145H422.8v7.839h11.758a1.307,1.307,0,0,1,1.307,1.307V138.5h7.839Z" transform="translate(3952.139 6618.399)" fill="#03cbad"/>
      <path id="Path_2735" data-name="Path 2735" d="M435.865,364.56a1.307,1.307,0,0,1-1.307,1.307H422.8v7.839h11.758a9.144,9.144,0,0,0,9.145-9.145V352.8h-7.838Z" transform="translate(3952.141 6438.071)" fill="#03cbad"/>
      <path id="Path_2736" data-name="Path 2736" d="M187.6,352.8v11.758a9.144,9.144,0,0,0,9.145,9.145H208.5v-7.838H196.745a1.307,1.307,0,0,1-1.307-1.307V352.8Z" transform="translate(4132.469 6438.073)" fill="#03cbad"/>
      <path id="Path_2737" data-name="Path 2737" d="M208.506,117.6H196.748a9.144,9.144,0,0,0-9.145,9.145V138.5h7.839V126.745a1.307,1.307,0,0,1,1.307-1.307h11.758Z" transform="translate(4132.467 6618.4)" fill="#03cbad"/>
      <path id="Path_2738" data-name="Path 2738" d="M308.9,232.205l7.839-19.453h0a3.919,3.919,0,0,0-3.7-5.37H297.925l6.794-16.985h-8.44l-7.839,19.453h0a3.919,3.919,0,0,0,3.7,5.37h15.116l-6.794,16.985Z" transform="translate(4055.369 6562.587)" fill="#03cbad"/>
    </g>
  </g>
</svg>
