<svg xmlns="http://www.w3.org/2000/svg" width="27.628" height="27.674" viewBox="0 0 27.628 27.674">
    <g transform="translate(-.001)">
        <path data-name="Path 320" d="M30.536 11.149a10.018 10.018 0 0 0-.643-3.4 7.073 7.073 0 0 0-4.039-4.04 10.135 10.135 0 0 0-3.354-.644c-1.476-.066-1.944-.084-5.69-.084s-4.227 0-5.692.084a10.135 10.135 0 0 0-3.352.644 7.068 7.068 0 0 0-4.039 4.04 10.055 10.055 0 0 0-.644 3.351C3.017 12.579 3 13.047 3 16.793s0 4.225.086 5.692a10.119 10.119 0 0 0 .643 3.355 7.073 7.073 0 0 0 4.041 4.038 10.1 10.1 0 0 0 3.352.69c1.477.066 1.945.086 5.692.086s4.227 0 5.692-.086a10.11 10.11 0 0 0 3.354-.643 7.08 7.08 0 0 0 4.039-4.04 10.1 10.1 0 0 0 .643-3.355c.066-1.476.086-1.944.086-5.692s-.007-4.221-.092-5.689zM16.8 23.878a7.093 7.093 0 1 1 7.093-7.093 7.091 7.091 0 0 1-7.093 7.093zm7.375-12.794a1.653 1.653 0 1 1 1.652-1.654 1.652 1.652 0 0 1-1.652 1.655z" transform="translate(-2.996 -2.981)" style="fill:#fff"/>
        <circle data-name="Ellipse 20" cx="4.607" cy="4.607" transform="translate(9.197 9.196)" style="fill:#fff" r="4.607"/>
    </g>
</svg>
