<svg xmlns="http://www.w3.org/2000/svg" width="200.389" height="62.622" viewBox="0 0 200.389 62.622">
    <defs>
        <clipPath id="3mt45jr8ca">
            <path data-name="Rectangle 599" style="fill:none" d="M0 0h200.389v62.622H0z"/>
        </clipPath>
    </defs>
    <g data-name="Group 466" style="clip-path:url(#3mt45jr8ca)">
        <path data-name="Path 1878" d="M189.8 62.622H10.593A10.593 10.593 0 0 1 0 52.028V10.593A10.593 10.593 0 0 1 10.593 0H189.8a10.594 10.594 0 0 1 10.593 10.593v41.435A10.593 10.593 0 0 1 189.8 62.622"/>
        <path data-name="Path 1879" d="M60.039 52.912a8.8 8.8 0 0 1 4.191-7.385 9.01 9.01 0 0 0-7.1-3.837c-2.986-.314-5.882 1.787-7.4 1.787-1.552 0-3.895-1.756-6.418-1.7a9.452 9.452 0 0 0-7.955 4.851c-3.44 5.955-.874 14.707 2.421 19.521 1.648 2.357 3.575 4.99 6.1 4.9 2.467-.1 3.388-1.573 6.366-1.573 2.95 0 3.815 1.573 6.386 1.513 2.647-.043 4.315-2.367 5.906-4.747a19.5 19.5 0 0 0 2.7-5.5 8.5 8.5 0 0 1-5.192-7.824" transform="translate(-17.8 -21.989)" style="fill:#fff"/>
        <path data-name="Path 1880" d="M72.684 28.08a8.665 8.665 0 0 0 1.982-6.208 8.816 8.816 0 0 0-5.7 2.951 8.244 8.244 0 0 0-2.038 5.977 7.289 7.289 0 0 0 5.757-2.722" transform="translate(-35.303 -11.545)" style="fill:#fff"/>
        <path data-name="Path 1881" d="M146.006 80.591h-3.447l-1.889-5.934h-6.564l-1.8 5.934h-3.357l6.5-20.2h4.017zm-5.9-8.423-1.709-5.275q-.27-.81-1.019-3.807h-.06q-.3 1.29-.959 3.807l-1.678 5.275z" transform="translate(-68.065 -31.876)" style="fill:#fff"/>
        <path data-name="Path 1882" d="M184.811 79.093a8.282 8.282 0 0 1-2.008 5.874 5.872 5.872 0 0 1-4.466 1.918 4.465 4.465 0 0 1-4.136-2.068h-.06v7.673H170.9V76.784q0-2.337-.12-4.8h2.847l.18 2.308h.06a5.76 5.76 0 0 1 9.217-.57 8.037 8.037 0 0 1 1.723 5.367m-3.3.119a6 6 0 0 0-.959-3.506 3.314 3.314 0 0 0-2.817-1.44 3.363 3.363 0 0 0-2.172.795 3.684 3.684 0 0 0-1.274 2.085 4.24 4.24 0 0 0-.15.988v2.43a3.892 3.892 0 0 0 .974 2.684 3.233 3.233 0 0 0 2.533 1.094 3.315 3.315 0 0 0 2.847-1.408 6.212 6.212 0 0 0 1.019-3.718" transform="translate(-90.146 -37.84)" style="fill:#fff"/>
        <path data-name="Path 1883" d="M220.3 79.093a8.275 8.275 0 0 1-2.01 5.874 5.866 5.866 0 0 1-4.465 1.918 4.462 4.462 0 0 1-4.136-2.068h-.06v7.673h-3.237V76.784q0-2.337-.12-4.8h2.847l.18 2.308h.06a5.761 5.761 0 0 1 9.218-.57 8.044 8.044 0 0 1 1.722 5.367m-3.3.119a6 6 0 0 0-.961-3.506 3.31 3.31 0 0 0-2.816-1.44 3.363 3.363 0 0 0-2.173.795 3.69 3.69 0 0 0-1.273 2.085 4.291 4.291 0 0 0-.15.988v2.43a3.9 3.9 0 0 0 .972 2.684 3.237 3.237 0 0 0 2.536 1.094 3.314 3.314 0 0 0 2.846-1.408 6.212 6.212 0 0 0 1.02-3.719" transform="translate(-108.877 -37.84)" style="fill:#fff"/>
        <path data-name="Path 1884" d="M261.644 74.591a5.381 5.381 0 0 1-1.794 4.2 7.952 7.952 0 0 1-5.5 1.769 9.641 9.641 0 0 1-5.24-1.26l.75-2.7a8.865 8.865 0 0 0 4.679 1.29 4.421 4.421 0 0 0 2.849-.826 2.7 2.7 0 0 0 1.018-2.207 2.815 2.815 0 0 0-.84-2.071 7.817 7.817 0 0 0-2.787-1.562q-5.305-1.979-5.3-5.794a5.132 5.132 0 0 1 1.859-4.083 7.337 7.337 0 0 1 4.946-1.591 9.8 9.8 0 0 1 4.584.959l-.809 2.638a7.953 7.953 0 0 0-3.866-.93 3.906 3.906 0 0 0-2.665.84 2.4 2.4 0 0 0-.81 1.829 2.467 2.467 0 0 0 .928 1.977 10.49 10.49 0 0 0 2.938 1.56 9.971 9.971 0 0 1 3.837 2.457 5.153 5.153 0 0 1 1.228 3.508" transform="translate(-131.49 -31.54)" style="fill:#fff"/>
        <path data-name="Path 1885" d="M288.4 70.7h-3.567v7.073q0 2.7 1.889 2.7a5.813 5.813 0 0 0 1.438-.15l.089 2.458a7.317 7.317 0 0 1-2.518.359 3.883 3.883 0 0 1-3-1.168 5.742 5.742 0 0 1-1.08-3.927V70.7h-2.121v-2.432h2.126V65.6l3.179-.959v3.627h3.565z" transform="translate(-147.546 -34.12)" style="fill:#fff"/>
        <path data-name="Path 1886" d="M316.461 79.152a7.994 7.994 0 0 1-1.918 5.515 6.85 6.85 0 0 1-5.337 2.218 6.511 6.511 0 0 1-5.109-2.127 7.749 7.749 0 0 1-1.9-5.365 7.912 7.912 0 0 1 1.963-5.545 6.794 6.794 0 0 1 5.29-2.159 6.653 6.653 0 0 1 5.156 2.129 7.677 7.677 0 0 1 1.859 5.334m-3.359.105a6.559 6.559 0 0 0-.869-3.457 3.2 3.2 0 0 0-2.906-1.744 3.244 3.244 0 0 0-2.968 1.744 6.681 6.681 0 0 0-.869 3.518 6.553 6.553 0 0 0 .869 3.456 3.307 3.307 0 0 0 5.844-.03 6.565 6.565 0 0 0 .9-3.487" transform="translate(-159.509 -37.84)" style="fill:#fff"/>
        <path data-name="Path 1887" d="M345.977 74.835a5.59 5.59 0 0 0-1.02-.089 3.06 3.06 0 0 0-2.639 1.289 4.844 4.844 0 0 0-.81 2.876v7.643h-3.235l.03-9.98q0-2.519-.121-4.587H341l.118 2.787h.089a4.971 4.971 0 0 1 1.619-2.307 3.915 3.915 0 0 1 2.339-.78 5.109 5.109 0 0 1 .81.059z" transform="translate(-178.505 -37.84)" style="fill:#fff"/>
        <path data-name="Path 1888" d="M370.874 78.55a7.6 7.6 0 0 1-.119 1.467h-9.711a4.23 4.23 0 0 0 1.408 3.3 4.808 4.808 0 0 0 3.176 1.018 10.75 10.75 0 0 0 3.928-.689l.507 2.247a12.159 12.159 0 0 1-4.884.9 7.069 7.069 0 0 1-5.322-1.994 7.366 7.366 0 0 1-1.933-5.351 8.343 8.343 0 0 1 1.8-5.485 6.2 6.2 0 0 1 5.094-2.337 5.427 5.427 0 0 1 4.768 2.337 7.874 7.874 0 0 1 1.287 4.587m-3.087-.84a4.4 4.4 0 0 0-.628-2.488 2.828 2.828 0 0 0-2.579-1.349 3.071 3.071 0 0 0-2.579 1.32 4.818 4.818 0 0 0-.958 2.517z" transform="translate(-188.926 -37.807)" style="fill:#fff"/>
        <path data-name="Path 1889" d="M141.178 28.7a4.982 4.982 0 0 1-1.605 4.035 6.384 6.384 0 0 1-4.225 1.252 19.718 19.718 0 0 1-2.327-.118V24.1a17.141 17.141 0 0 1 2.74-.206 5.907 5.907 0 0 1 3.931 1.134 4.578 4.578 0 0 1 1.487 3.666m-1.678.044a3.234 3.234 0 0 0-3.608-3.593 6.759 6.759 0 0 0-1.281.1v7.421a8.5 8.5 0 0 0 1.075.044 3.766 3.766 0 0 0 2.82-1.016 4.066 4.066 0 0 0 .994-2.96" transform="translate(-70.213 -12.614)" style="fill:#fff"/>
        <path data-name="Path 1890" d="M161.3 33.271a3.921 3.921 0 0 1-.943 2.709 3.363 3.363 0 0 1-2.621 1.09 3.2 3.2 0 0 1-2.511-1.045 3.812 3.812 0 0 1-.934-2.636 3.891 3.891 0 0 1 .964-2.724 3.341 3.341 0 0 1 2.6-1.06 3.273 3.273 0 0 1 2.534 1.045 3.777 3.777 0 0 1 .913 2.621m-1.65.052a3.23 3.23 0 0 0-.427-1.7 1.571 1.571 0 0 0-1.427-.857 1.6 1.6 0 0 0-1.459.857 3.292 3.292 0 0 0-.427 1.727 3.237 3.237 0 0 0 .427 1.7 1.625 1.625 0 0 0 2.872-.015 3.218 3.218 0 0 0 .442-1.713" transform="translate(-81.439 -15.627)" style="fill:#fff"/>
        <path data-name="Path 1891" d="m182.8 29.917-2.239 7.157h-1.457l-.928-3.107a22.984 22.984 0 0 1-.575-2.312h-.028a16.857 16.857 0 0 1-.573 2.311l-.986 3.107h-1.474l-2.105-7.157h1.635l.81 3.4q.293 1.208.486 2.3h.028q.178-.9.59-2.282L177 29.917h1.3l.973 3.343q.353 1.222.574 2.356h.044a22.43 22.43 0 0 1 .486-2.356l.869-3.343z" transform="translate(-91.019 -15.791)" style="fill:#fff"/>
        <path data-name="Path 1892" d="M204.849 36.909h-1.591v-4.1q0-1.895-1.442-1.895a1.435 1.435 0 0 0-1.149.521 1.843 1.843 0 0 0-.442 1.227v4.245h-1.591V31.8q0-.943-.058-2.047h1.4l.074 1.118h.044a2.3 2.3 0 0 1 .824-.863 2.684 2.684 0 0 1 1.442-.4 2.283 2.283 0 0 1 1.665.648 3.146 3.146 0 0 1 .824 2.371z" transform="translate(-104.816 -15.627)" style="fill:#fff"/>
        <path data-name="Rectangle 598" transform="translate(102.831 10.842)" style="fill:#fff" d="M0 0h1.589v10.44H0z"/>
        <path data-name="Path 1893" d="M233.155 33.271a3.923 3.923 0 0 1-.943 2.709 3.365 3.365 0 0 1-2.621 1.09 3.2 3.2 0 0 1-2.511-1.045 3.809 3.809 0 0 1-.934-2.636 3.891 3.891 0 0 1 .964-2.724 3.339 3.339 0 0 1 2.6-1.06 3.276 3.276 0 0 1 2.535 1.045 3.78 3.78 0 0 1 .913 2.621m-1.652.052a3.23 3.23 0 0 0-.427-1.7 1.569 1.569 0 0 0-1.426-.857 1.592 1.592 0 0 0-1.458.857 3.288 3.288 0 0 0-.427 1.727 3.233 3.233 0 0 0 .427 1.7 1.605 1.605 0 0 0 1.444.856 1.589 1.589 0 0 0 1.426-.871 3.209 3.209 0 0 0 .441-1.713" transform="translate(-119.368 -15.627)" style="fill:#fff"/>
        <path data-name="Path 1894" d="M250.731 36.909H249.3l-.118-.824h-.044a2.451 2.451 0 0 1-2.09.987 2.155 2.155 0 0 1-1.634-.649 2.031 2.031 0 0 1-.56-1.457 2.226 2.226 0 0 1 1.1-2 5.711 5.711 0 0 1 3.087-.678v-.133q0-1.413-1.485-1.414a3.319 3.319 0 0 0-1.865.53l-.323-1.045a4.576 4.576 0 0 1 2.455-.618q2.806 0 2.808 2.96V35.2a11.153 11.153 0 0 0 .1 1.708m-1.652-2.459v-1.1q-2.633-.045-2.633 1.443a1.079 1.079 0 0 0 .305.84 1.113 1.113 0 0 0 .777.28 1.6 1.6 0 0 0 .973-.331 1.354 1.354 0 0 0 .552-.846 1.311 1.311 0 0 0 .026-.28" transform="translate(-129.243 -15.627)" style="fill:#fff"/>
        <path data-name="Path 1895" d="M268.81 33.4h-1.41l-.075-1.149h-.044a2.378 2.378 0 0 1-2.3 1.311 2.692 2.692 0 0 1-2.15-1.016 3.957 3.957 0 0 1-.854-2.636 4.144 4.144 0 0 1 .928-2.813 2.851 2.851 0 0 1 2.209-1 2.146 2.146 0 0 1 2.016.972h.03v-4.108h1.592v8.512q0 1.045.057 1.929m-1.649-3.019V29.19a2.277 2.277 0 0 0-.044-.5 1.811 1.811 0 0 0-.575-.965 1.562 1.562 0 0 0-1.065-.39 1.634 1.634 0 0 0-1.4.707 3.035 3.035 0 0 0-.51 1.811 2.832 2.832 0 0 0 .489 1.723 1.638 1.638 0 0 0 1.391.706 1.537 1.537 0 0 0 1.257-.588 1.97 1.97 0 0 0 .457-1.311" transform="translate(-138.282 -12.12)" style="fill:#fff"/>
        <path data-name="Path 1896" d="M297.427 33.271a3.923 3.923 0 0 1-.942 2.709 3.362 3.362 0 0 1-2.621 1.09 3.206 3.206 0 0 1-2.511-1.045 3.809 3.809 0 0 1-.934-2.636 3.893 3.893 0 0 1 .964-2.724 3.342 3.342 0 0 1 2.6-1.06 3.269 3.269 0 0 1 2.532 1.045 3.777 3.777 0 0 1 .913 2.621m-1.648.052a3.23 3.23 0 0 0-.427-1.7 1.574 1.574 0 0 0-1.429-.857 1.6 1.6 0 0 0-1.459.857 3.292 3.292 0 0 0-.427 1.727 3.238 3.238 0 0 0 .427 1.7 1.627 1.627 0 0 0 2.873-.015 3.231 3.231 0 0 0 .442-1.713" transform="translate(-153.293 -15.627)" style="fill:#fff"/>
        <path data-name="Path 1897" d="M316.37 36.909h-1.589v-4.1q0-1.895-1.444-1.895a1.43 1.43 0 0 0-1.147.521 1.843 1.843 0 0 0-.442 1.227v4.245h-1.592V31.8q0-.943-.057-2.047h1.4l.074 1.118h.044a2.319 2.319 0 0 1 .824-.863 2.688 2.688 0 0 1 1.444-.4 2.283 2.283 0 0 1 1.663.648 3.141 3.141 0 0 1 .824 2.371z" transform="translate(-163.682 -15.627)" style="fill:#fff"/>
        <path data-name="Path 1898" d="M341.184 29.118h-1.752v3.476c0 .884.311 1.326.928 1.326a2.8 2.8 0 0 0 .708-.075l.042 1.208a3.592 3.592 0 0 1-1.236.177 1.9 1.9 0 0 1-1.471-.574 2.8 2.8 0 0 1-.531-1.929v-3.609h-1.047v-1.193h1.047v-1.31l1.56-.471v1.781h1.752z" transform="translate(-177.789 -13.8)" style="fill:#fff"/>
        <path data-name="Path 1899" d="M356.949 33.4h-1.592v-4.066q0-1.925-1.441-1.925a1.518 1.518 0 0 0-1.518 1.117 2 2 0 0 0-.074.573v4.3h-1.59V22.962h1.59v4.313h.029A2.406 2.406 0 0 1 354.5 26.1a2.22 2.22 0 0 1 1.637.648 3.256 3.256 0 0 1 .81 2.4z" transform="translate(-185.13 -12.12)" style="fill:#fff"/>
        <path data-name="Path 1900" d="M375.187 32.975a3.831 3.831 0 0 1-.059.721h-4.771a2.084 2.084 0 0 0 .691 1.62 2.368 2.368 0 0 0 1.562.5 5.28 5.28 0 0 0 1.93-.339l.249 1.1a6 6 0 0 1-2.4.442 3.465 3.465 0 0 1-2.612-.979 3.609 3.609 0 0 1-.949-2.629 4.1 4.1 0 0 1 .884-2.7 3.041 3.041 0 0 1 2.5-1.148 2.66 2.66 0 0 1 2.34 1.148 3.843 3.843 0 0 1 .635 2.253m-1.518-.412a2.142 2.142 0 0 0-.308-1.222 1.389 1.389 0 0 0-1.266-.662 1.512 1.512 0 0 0-1.266.648 2.394 2.394 0 0 0-.471 1.237z" transform="translate(-194.681 -15.61)" style="fill:#fff"/>
    </g>
</svg>
