<svg xmlns="http://www.w3.org/2000/svg" width="27.62" height="27.62" viewBox="0 0 27.62 27.62">
    <path d="M25.109 0H2.511A2.51 2.51 0 0 0 0 2.511v22.6a2.51 2.51 0 0 0 2.511 2.509h22.6a2.51 2.51 0 0 0 2.511-2.511V2.511A2.51 2.51 0 0 0 25.109 0M8.73 22.6h-3.7V10.681h3.7zM6.841 8.978A2.159 2.159 0 1 1 9 6.818a2.159 2.159 0 0 1-2.159 2.16M22.6 22.6h-3.7v-5.8c0-1.382-.025-3.16-1.925-3.16-1.927 0-2.223 1.505-2.223 3.06v5.9h-3.7V10.681h3.553v1.629h.05a3.892 3.892 0 0 1 3.5-1.925c3.75 0 4.443 2.468 4.443 5.677V22.6" style="fill:#fff"/>
</svg>
