<svg xmlns="http://www.w3.org/2000/svg" width="25.628" height="29.046" viewBox="0 0 25.628 29.046">
    <path data-name="Path 2808" d="M292.105 182.314a5.91 5.91 0 0 1-4.046-1.443 6.028 6.028 0 0 1-1.9-5.355 5.635 5.635 0 0 1 3.343-4.217 6.254 6.254 0 0 1 2.582-.575 5.9 5.9 0 0 1 5.391 3.59 5.8 5.8 0 0 1-1.23 6.4 5.633 5.633 0 0 1-4.144 1.595zm-.017-9.963a4.64 4.64 0 0 0-1.913.431 4.035 4.035 0 0 0-2.409 3 4.408 4.408 0 0 0 1.409 3.9 4.344 4.344 0 0 0 2.929 1 4.086 4.086 0 0 0 2.958-1.078 4.167 4.167 0 0 0 .927-4.647 4.278 4.278 0 0 0-3.9-2.612z" transform="translate(-279.216 -164.057)" style="fill:#fff"/>
    <path data-name="Path 2809" d="M224.937 127.99c-4.8 0-9.828-8.149-10.384-9.078-2.5-4.163-3.95-10.737.185-15.563a13.553 13.553 0 0 1 22.4 3.679 11.791 11.791 0 0 1-.45 8.68c-1.818 3.839-5.267 8.907-9.5 11.616a4.118 4.118 0 0 1-2.256.666zm-.217-27.421a11.429 11.429 0 0 0-8.747 3.838c-3.573 4.169-2.247 9.969-.026 13.668 1.721 2.866 5.814 8.29 8.991 8.29a2.485 2.485 0 0 0 1.379-.41c3.939-2.524 7.183-7.308 8.9-10.943a10.222 10.222 0 0 0 .4-7.408 11.355 11.355 0 0 0-10.9-7.035z" transform="translate(-212.135 -98.944)" style="fill:#fff"/>
</svg>
