<svg xmlns="http://www.w3.org/2000/svg" width="37" height="24.667" viewBox="0 0 37 24.667">
    <path data-name="Path 399" d="M35.458 14.083H1.542a1.542 1.542 0 0 1 0-3.083h33.916a1.542 1.542 0 0 1 0 3.083z" transform="translate(0 -.208)" style="fill:#8669fc"/>
    <path data-name="Path 400" d="M29.5 7.083H12.542a1.542 1.542 0 0 1 0-3.083H29.5a1.542 1.542 0 1 1 0 3.083z" transform="translate(5.958 -4)" style="fill:#8669fc"/>
    <path data-name="Path 401" d="M18.5 21.083H1.542a1.542 1.542 0 0 1 0-3.083H18.5a1.542 1.542 0 0 1 0 3.083z" transform="translate(16.958 3.583)" style="fill:#8669fc"/>
</svg>
