<svg id="noun-shopping-bag-4689480" xmlns="http://www.w3.org/2000/svg" width="24" height="26.384" viewBox="0 0 24 26.384">
  <path id="Path_1932" data-name="Path 1932" d="M139.674,26.75a3.6,3.6,0,0,0-3.6-3.418h-15.11a3.6,3.6,0,0,0-3.6,3.418l-.839,16.67a6,6,0,0,0,6,6.3h11.993a6,6,0,0,0,6-6.3ZM137.12,46.2a3.6,3.6,0,0,1-2.6,1.115H122.525a3.6,3.6,0,0,1-3.6-3.778l.84-16.61a1.2,1.2,0,0,1,1.2-1.2h15.11a1.2,1.2,0,0,1,1.2,1.2l.839,16.669h0a3.6,3.6,0,0,1-1,2.6Z" transform="translate(-116.521 -23.332)" fill="#002b54"/>
  <path id="Path_1933" data-name="Path 1933" d="M244.523,116.669a1.244,1.244,0,0,0-1.244,1.244,2.487,2.487,0,0,1-2.487,2.487H238.3a2.487,2.487,0,0,1-2.487-2.487,1.244,1.244,0,0,0-2.487,0,4.975,4.975,0,0,0,4.975,4.974h2.487a4.975,4.975,0,0,0,4.975-4.974,1.244,1.244,0,0,0-1.244-1.244Z" transform="translate(-227.548 -111.924)" fill="#002b54"/>
</svg>
