<svg xmlns="http://www.w3.org/2000/svg" width="16.557" height="18.201" viewBox="0 0 16.557 18.201">
    <path data-name="Path 2552" d="M132.494 25.69a2.482 2.482 0 0 0-2.482-2.358h-10.424a2.482 2.482 0 0 0-2.482 2.358l-.579 11.5a4.136 4.136 0 0 0 4.136 4.343h8.273a4.136 4.136 0 0 0 4.136-4.343zm-1.762 13.419a2.482 2.482 0 0 1-1.8.769h-8.273a2.482 2.482 0 0 1-2.482-2.606l.579-11.458a.827.827 0 0 1 .827-.827h10.424a.827.827 0 0 1 .827.827l.579 11.5a2.483 2.483 0 0 1-.687 1.8z" transform="translate(-116.521 -23.332)" style="fill:#8669fc"/>
    <path data-name="Path 2553" d="M241.051 116.669a.858.858 0 0 0-.858.858 1.716 1.716 0 0 1-1.716 1.716h-1.716a1.716 1.716 0 0 1-1.716-1.716.858.858 0 0 0-1.716 0 3.432 3.432 0 0 0 3.432 3.432h1.716a3.432 3.432 0 0 0 3.432-3.432.858.858 0 0 0-.858-.858z" transform="translate(-229.341 -113.396)" style="fill:#8669fc"/>
</svg>
