<svg xmlns="http://www.w3.org/2000/svg" width="16.909" height="27.669" viewBox="0 0 16.909 27.669">
    <path data-name="Path 2805" d="M217.227 41.371H208a3.848 3.848 0 0 0-3.843 3.843V65.2A3.848 3.848 0 0 0 208 69.04h9.223a3.848 3.848 0 0 0 3.847-3.84V45.214a3.847 3.847 0 0 0-3.843-3.843zm2.306 23.829a2.309 2.309 0 0 1-2.306 2.306H208a2.309 2.309 0 0 1-2.3-2.306V45.214a2.309 2.309 0 0 1 2.3-2.306h9.223a2.309 2.309 0 0 1 2.306 2.306z" transform="translate(-204.161 -41.371)" style="fill:#fff"/>
    <path data-name="Path 2806" d="M326.568 427.369a1.537 1.537 0 1 1-1.537-1.537 1.537 1.537 0 0 1 1.537 1.537" transform="translate(-316.576 -403.544)" style="fill:#fff"/>
    <path data-name="Path 2807" d="M314.064 81.129h-3.075a.768.768 0 1 0 0 1.537h3.075a.768.768 0 0 0 0-1.537z" transform="translate(-304.072 -78.824)" style="fill:#fff"/>
</svg>
