<svg xmlns="http://www.w3.org/2000/svg" width="75.777" height="75.777" viewBox="0 0 75.777 75.777">
    <path data-name="Path 2734" d="M443.706 126.746a9.144 9.144 0 0 0-9.145-9.145H422.8v7.839h11.758a1.307 1.307 0 0 1 1.307 1.307V138.5h7.839z" transform="translate(-367.93 -117.601)" style="fill:#03cbad"/>
    <path data-name="Path 2735" d="M435.865 364.56a1.307 1.307 0 0 1-1.307 1.307H422.8v7.839h11.758a9.144 9.144 0 0 0 9.145-9.145V352.8h-7.838z" transform="translate(-367.928 -297.929)" style="fill:#03cbad"/>
    <path data-name="Path 2736" d="M187.6 352.8v11.758a9.144 9.144 0 0 0 9.145 9.145H208.5v-7.838h-11.755a1.307 1.307 0 0 1-1.307-1.307V352.8z" transform="translate(-187.6 -297.927)" style="fill:#03cbad"/>
    <path data-name="Path 2737" d="M208.506 117.6h-11.758a9.144 9.144 0 0 0-9.145 9.145V138.5h7.839v-11.755a1.307 1.307 0 0 1 1.307-1.307h11.758z" transform="translate(-187.602 -117.6)" style="fill:#03cbad"/>
    <path data-name="Path 2738" d="m308.9 232.205 7.839-19.453a3.919 3.919 0 0 0-3.7-5.37h-15.114l6.794-16.985h-8.44l-7.839 19.453a3.919 3.919 0 0 0 3.7 5.37h15.116l-6.794 16.985z" transform="translate(-264.7 -173.413)" style="fill:#03cbad"/>
</svg>
