<svg id="socket" xmlns="http://www.w3.org/2000/svg" xmlns:xlink="http://www.w3.org/1999/xlink" width="363.967" height="383.828" viewBox="0 0 363.967 383.828">
  <defs>
    <clipPath id="clip-path">
      <rect id="Rectangle_1684" data-name="Rectangle 1684" width="363.967" height="383.828" fill="none"/>
    </clipPath>
  </defs>
  <g id="Group_1558" data-name="Group 1558" clip-path="url(#clip-path)">
    <path id="Path_2710" data-name="Path 2710" d="M360,3.97V379.858H22.348A18.4,18.4,0,0,1,3.97,361.48V22.348A18.4,18.4,0,0,1,22.348,3.97ZM363.967,0H22.348A22.348,22.348,0,0,0,0,22.348V361.48a22.348,22.348,0,0,0,22.348,22.348H363.967V0Z" fill="#8669fc"/>
    <path id="Path_2711" data-name="Path 2711" d="M21.856,106.625H15.869a1.247,1.247,0,0,0-1.248,1.248v.1a1.247,1.247,0,0,0,1.248,1.248h8.481v-5.631a1.247,1.247,0,0,0-2.495,0Z" transform="translate(14.4 100.799)" fill="#dee0e2"/>
    <path id="Path_2712" data-name="Path 2712" d="M15.921,102.328h7.13a1.3,1.3,0,0,0,0-2.6h-7.13a1.3,1.3,0,0,0,0,2.6" transform="translate(14.4 98.219)" fill="#dee0e2"/>
    <path id="Path_2713" data-name="Path 2713" d="M15.921,92.524h7.13a1.3,1.3,0,1,0,0-2.6h-7.13a1.3,1.3,0,1,0,0,2.6" transform="translate(14.4 88.563)" fill="#dee0e2"/>
    <path id="Path_2714" data-name="Path 2714" d="M21.266,84.843,19.49,86.417l-1.782,1.574-2.688,2.37a1.178,1.178,0,0,0-.4.883v0a1.179,1.179,0,0,0,1.959.883l2.91-2.568,1.776-1.572,2.688-2.378a1.179,1.179,0,1,0-1.562-1.767Z" transform="translate(14.4 82.284)" fill="#dee0e2"/>
    <path id="Path_2715" data-name="Path 2715" d="M14.621,83.171v2.576a.213.213,0,0,0,.071.161l.657.58a1.418,1.418,0,0,0,2.358-1.062l-2.731-2.416a.214.214,0,0,0-.355.161" transform="translate(14.4 81.702)" fill="#dee0e2"/>
    <path id="Path_2716" data-name="Path 2716" d="M20.326,87.013l.657.582a.209.209,0,0,1,.071.159V90.33a.213.213,0,0,1-.353.161L17.97,88.075a1.417,1.417,0,0,1,2.356-1.062" transform="translate(17.698 85.343)" fill="#dee0e2"/>
    <path id="Path_2717" data-name="Path 2717" d="M14.621,81.658h0a2.278,2.278,0,0,0,1.2,2.009l6.768,3.622a1.2,1.2,0,0,0,1.759-1.056v-.058a1.194,1.194,0,0,0-.633-1.056L17.189,81.64l6.546-3.624a1.2,1.2,0,0,0-1.157-2.092L15.8,79.663a2.276,2.276,0,0,0-1.179,1.995" transform="translate(14.4 74.627)" fill="#dee0e2"/>
    <path id="Path_2718" data-name="Path 2718" d="M15.256,94.855l6.526,3.479-6.542,3.622a1.2,1.2,0,1,0,1.159,2.1l6.774-3.741a2.279,2.279,0,0,0-.026-4.005l-6.762-3.618a1.2,1.2,0,0,0-1.765,1.056V93.8a1.2,1.2,0,0,0,.635,1.058" transform="translate(14.4 91.143)" fill="#dee0e2"/>
    <path id="Path_2719" data-name="Path 2719" d="M18.363,109.743a2.6,2.6,0,1,0,2.6,2.6,2.6,2.6,0,0,0-2.6-2.6" transform="translate(15.524 108.082)" fill="#dee0e2"/>
    <path id="Path_2720" data-name="Path 2720" d="M18.363,114.983a2.6,2.6,0,1,0,2.6,2.6,2.6,2.6,0,0,0-2.6-2.6" transform="translate(15.524 113.243)" fill="#dee0e2"/>
    <path id="Path_2721" data-name="Path 2721" d="M13.143,114.963a2.6,2.6,0,1,0,2.6-2.6,2.6,2.6,0,0,0-2.6,2.6" transform="translate(12.944 110.663)" fill="#dee0e2"/>
    <path id="Path_2722" data-name="Path 2722" d="M18.383,114.963a2.6,2.6,0,1,0,2.6-2.6,2.6,2.6,0,0,0-2.6,2.6" transform="translate(18.105 110.663)" fill="#dee0e2"/>
    <path id="Path_2723" data-name="Path 2723" d="M185.5,22.844a.465.465,0,0,1,.464.464V63.694a.465.465,0,0,1-.464.464H145.114a.465.465,0,0,1-.464-.464V23.308a.465.465,0,0,1,.464-.464Zm0-3.97H145.114a4.434,4.434,0,0,0-4.434,4.434V63.694a4.435,4.435,0,0,0,4.434,4.434H185.5a4.435,4.435,0,0,0,4.434-4.434V23.308a4.434,4.434,0,0,0-4.434-4.434" transform="translate(138.551 18.588)" fill="#8669fc"/>
    <path id="Path_2724" data-name="Path 2724" d="M110.673,102.948v-32.1a5.51,5.51,0,0,0-5.51-5.51H90.8a5.511,5.511,0,0,0-5.512,5.51v32.1a5.511,5.511,0,0,0,5.512,5.51h14.359a5.51,5.51,0,0,0,5.51-5.51" transform="translate(84.001 64.348)" fill="#8669fc"/>
    <path id="Path_2725" data-name="Path 2725" d="M110.95,140.633h32.1a5.51,5.51,0,0,0,5.51-5.51V120.765a5.511,5.511,0,0,0-5.51-5.512h-32.1a5.511,5.511,0,0,0-5.51,5.512v14.359a5.51,5.51,0,0,0,5.51,5.51" transform="translate(103.844 113.509)" fill="#8669fc"/>
    <path id="Path_2726" data-name="Path 2726" d="M61.716,140.633h32.1a5.51,5.51,0,0,0,5.51-5.51V120.765a5.511,5.511,0,0,0-5.51-5.512h-32.1a5.511,5.511,0,0,0-5.51,5.512v14.359a5.51,5.51,0,0,0,5.51,5.51" transform="translate(55.355 113.509)" fill="#8669fc"/>
  </g>
</svg>
