<svg xmlns="http://www.w3.org/2000/svg" width="30.15" height="24.489" viewBox="0 0 30.15 24.489">
    <path d="M29.052 10.122c.02.268.02.535.02.8 0 8.17-6.218 17.583-17.582 17.583A17.461 17.461 0 0 1 2 25.732a12.914 12.914 0 0 0 1.493.077 12.381 12.381 0 0 0 7.672-2.64 6.192 6.192 0 0 1-5.779-4.285 7.87 7.87 0 0 0 1.168.1 6.575 6.575 0 0 0 1.628-.21A6.178 6.178 0 0 1 3.226 12.7v-.077a6.236 6.236 0 0 0 2.792.784A6.188 6.188 0 0 1 4.1 5.148a17.577 17.577 0 0 0 12.743 6.467 7.022 7.022 0 0 1-.153-1.416A6.186 6.186 0 0 1 27.388 5.97a12.207 12.207 0 0 0 3.921-1.493 6.167 6.167 0 0 1-2.717 3.406 12.385 12.385 0 0 0 3.558-.957 13.263 13.263 0 0 1-3.1 3.2z" transform="translate(-2 -4.019)" style="fill:#fff"/>
</svg>
