<svg xmlns="http://www.w3.org/2000/svg" width="24" height="24" viewBox="0 0 24 24">
    <path data-name="Path 2" d="M12 0A12 12 0 1 1 0 12 12 12 0 0 1 12 0m0 2.4a9.6 9.6 0 1 0 9.6 9.6A9.6 9.6 0 0 0 12 2.4" style="fill:#fd6b42"/>
    <path data-name="Path 3" d="m168.913 167.2 2.965-2.965a1.215 1.215 0 0 0-.848-2.086h-.01a1.223 1.223 0 0 0-.86.368l-2.965 2.965-2.965-2.965a1.215 1.215 0 1 0-1.718 1.719l2.965 2.965-2.965 2.965a1.215 1.215 0 0 0 .848 2.086h.01a1.223 1.223 0 0 0 .86-.368l2.965-2.965 2.967 2.967.006.005a1.221 1.221 0 0 0 .846.341 1.2 1.2 0 0 0 .319-.043 1.215 1.215 0 0 0 .553-2.016z" transform="translate(-155.194 -155.197)" style="fill:#fd6b42"/>
</svg>
